<svg xmlns="http://www.w3.org/2000/svg" xmlns:xlink="http://www.w3.org/1999/xlink" version="1.1" width="256" height="256" viewBox="0 0 256 256" xml:space="preserve">
<desc>Created with Fabric.js 1.7.22</desc>
<defs>
</defs>
<g transform="translate(128 128) scale(0.72 0.72)" style="">
	<g style="stroke: none; stroke-width: 0; stroke-dasharray: none; stroke-linecap: butt; stroke-linejoin: miter; stroke-miterlimit: 10; fill: none; fill-rule: nonzero; opacity: 1;" transform="translate(-175.05 -175.05000000000004) scale(3.89 3.89)" >
	<path d="M 83.254 90 H 6.747 C 3.027 90 0 86.974 0 83.253 V 6.747 C 0 3.026 3.027 0 6.747 0 h 76.507 C 86.974 0 90 3.026 90 6.747 v 76.506 C 90 86.974 86.974 90 83.254 90 z M 6.747 4 C 5.232 4 4 5.232 4 6.747 v 76.506 C 4 84.768 5.232 86 6.747 86 h 76.507 C 84.769 86 86 84.768 86 83.253 V 6.747 C 86 5.232 84.769 4 83.254 4 H 6.747 z" style="stroke: none; stroke-width: 1; stroke-dasharray: none; stroke-linecap: butt; stroke-linejoin: miter; stroke-miterlimit: 10; fill: white; fill-rule: nonzero; opacity: 1;" transform=" matrix(1 0 0 1 0 0) " stroke-linecap="round" />
	<path d="M 49.54 76.318 H 38.775 c -1.104 0 -2 -0.896 -2 -2 V 49.571 h -7 c -1.104 0 -2 -0.896 -2 -2 V 37.147 c 0 -1.104 0.896 -2 2 -2 h 7 V 29.46 c 0 -9.585 6.047 -15.779 15.406 -15.779 c 4.149 0 7.471 0.317 8.308 0.429 c 0.994 0.132 1.736 0.979 1.736 1.982 v 9.323 c 0 1.104 -0.895 2 -1.999 2 l -5.521 0.002 c -2.907 0 -3.166 0.797 -3.166 3.075 v 4.655 h 8.321 c 0.575 0 1.122 0.248 1.502 0.679 c 0.38 0.432 0.555 1.006 0.481 1.577 l -1.344 10.424 c -0.128 0.997 -0.978 1.744 -1.983 1.744 H 51.54 v 24.747 C 51.54 75.423 50.645 76.318 49.54 76.318 z M 40.775 72.318 h 6.765 V 47.571 c 0 -1.104 0.896 -2 2 -2 h 7.219 l 0.828 -6.424 H 49.54 c -1.104 0 -2 -0.896 -2 -2 v -6.655 c 0 -1.75 0 -7.075 7.165 -7.075 l 3.521 -0.001 v -5.508 c -1.494 -0.114 -3.67 -0.227 -6.044 -0.227 c -7.249 0 -11.406 4.293 -11.406 11.779 v 7.687 c 0 1.104 -0.896 2 -2 2 h -7 v 6.424 h 7 c 1.104 0 2 0.896 2 2 V 72.318 z" style="stroke: none; stroke-width: 1; stroke-dasharray: none; stroke-linecap: butt; stroke-linejoin: miter; stroke-miterlimit: 10; fill: white; fill-rule: nonzero; opacity: 1;" transform=" matrix(1 0 0 1 0 0) " stroke-linecap="round" />
</g>
</g>
</svg>